<svg width="32" height="32" viewBox="0 0 32 32" fill="none" xmlns="http://www.w3.org/2000/svg">
<rect width="32" height="32" transform="matrix(-1 0 0 1 32 0)" fill="black"/>
<rect x="-0.5" y="0.5" width="25" height="25" transform="matrix(-1 0 0 1 28 3)" stroke="white"/>
<path d="M11.0334 23.192C10.276 23.192 9.58804 23.048 8.96938 22.76C8.35071 22.472 7.82804 22.088 7.40138 21.608C6.97471 21.1173 6.67071 20.5787 6.48938 19.992L7.64138 19.56C7.91871 20.3707 8.35071 20.9893 8.93738 21.416C9.52404 21.832 10.2227 22.04 11.0334 22.04C11.5454 22.04 11.9934 21.96 12.3774 21.8C12.772 21.6293 13.076 21.3947 13.2894 21.096C13.5027 20.7973 13.6094 20.4507 13.6094 20.056C13.6094 19.4693 13.4494 19.016 13.1294 18.696C12.8094 18.376 12.3507 18.1307 11.7534 17.96L9.60938 17.32C8.76671 17.0747 8.11604 16.664 7.65738 16.088C7.20938 15.512 6.98538 14.856 6.98538 14.12C6.98538 13.4907 7.14004 12.936 7.44938 12.456C7.75871 11.9653 8.18004 11.5813 8.71338 11.304C9.25738 11.0267 9.87071 10.888 10.5534 10.888C11.268 10.888 11.908 11.0213 12.4734 11.288C13.0494 11.544 13.5347 11.8853 13.9294 12.312C14.324 12.7387 14.6067 13.2133 14.7774 13.736L13.6574 14.184C13.4014 13.48 13.0014 12.9467 12.4574 12.584C11.924 12.2213 11.2947 12.04 10.5694 12.04C10.1107 12.04 9.70538 12.12 9.35338 12.28C9.01204 12.44 8.74538 12.6693 8.55338 12.968C8.36138 13.2667 8.26538 13.6187 8.26538 14.024C8.26538 14.5147 8.42004 14.9573 8.72938 15.352C9.03871 15.736 9.51338 16.024 10.1534 16.216L12.0414 16.776C12.98 17.0533 13.6894 17.4533 14.1694 17.976C14.6494 18.4987 14.8894 19.1547 14.8894 19.944C14.8894 20.584 14.724 21.1493 14.3934 21.64C14.0734 22.12 13.62 22.4987 13.0334 22.776C12.4574 23.0533 11.7907 23.192 11.0334 23.192ZM16.1291 23L20.4811 11.08H21.8571L26.2091 23H24.8651L23.8411 20.088H18.5131L17.4731 23H16.1291ZM18.9291 18.888H23.3931L20.9771 12.04H21.3611L18.9291 18.888Z" fill="white"/>
</svg>
